<svg width="53" height="53" viewBox="0 0 53 53" fill="none" xmlns="http://www.w3.org/2000/svg">
<g clip-path="url(#clip0)">
<path d="M43.1274 15.8368H24.0059L20.2024 11.3162C20.0744 11.1624 19.8827 11.0761 19.6827 11.0823H4.25559C1.90021 11.0995 0 13.0137 0 15.3691V43.1733C0.00285784 45.5368 1.91813 47.452 4.28157 47.4549H43.1274C45.4909 47.452 47.4062 45.5368 47.409 43.1733V20.1183C47.4062 17.7549 45.4909 15.8396 43.1274 15.8368Z" fill="#1CAA9F"/>
<path d="M48.7444 10.2977H29.6177L25.8141 5.77711C25.6862 5.6233 25.4944 5.53705 25.2945 5.54328H9.87256C7.73541 5.54679 5.92822 7.12562 5.63776 9.24289H19.7035C20.4411 9.24108 21.1414 9.56661 21.6157 10.1314L24.8632 13.9921H43.1275C46.5056 13.9978 49.2427 16.735 49.2484 20.1131V41.8743C51.3903 41.6071 52.9983 39.7875 53 37.6291V14.5741C52.9944 12.2227 51.0956 10.3148 48.7444 10.2977Z" fill="#00847A"/>
</g>
<defs>
<clipPath id="clip0">
<rect width="53" height="53" fill="white"/>
</clipPath>
</defs>
</svg>
