<svg width="18" height="12" viewBox="0 0 18 12" fill="none" xmlns="http://www.w3.org/2000/svg">
<path d="M17.5436 4.62772L14.1677 4.17254L12.5176 1.27073C12.0624 0.493118 11.2279 0 10.3365 0H5.93638C4.87428 0 3.92598 0.663813 3.56562 1.65005L2.67422 4.11564L0.43622 4.60876C0.170695 4.66565 0 4.89325 0 5.15877V8.36404C0 8.66749 0.246559 8.91405 0.550016 8.91405H1.87764C1.97247 10.2037 3.05354 11.2089 4.3622 11.2089C5.67086 11.2089 6.75192 10.1848 6.84675 8.91405H11.1521C11.2469 10.2037 12.3279 11.2089 13.6366 11.2089C14.9453 11.2089 16.0263 10.1848 16.1212 8.91405H17.4488C17.7522 8.91405 17.9988 8.66749 17.9988 8.36404V5.1967C18.0178 4.91221 17.8091 4.66565 17.5436 4.62772ZM4.3622 10.0331C3.64149 10.0331 3.05354 9.4451 3.05354 8.72439C3.05354 8.00368 3.64149 7.41573 4.3622 7.41573C5.08291 7.41573 5.67086 8.00368 5.67086 8.72439C5.67086 9.4451 5.10187 10.0331 4.3622 10.0331ZM4.49496 4.11564C4.41909 4.11564 4.3622 4.03977 4.38116 3.96391L5.02601 2.21903C5.15877 1.83971 5.51913 1.59315 5.91741 1.59315H6.69502C6.75192 1.59315 6.80882 1.63108 6.80882 1.68798L7.01745 4.00184C7.01745 4.05874 6.97951 4.11564 6.90365 4.11564H4.49496ZM8.40197 1.70695C8.40197 1.65005 8.4399 1.59315 8.51577 1.59315H10.3175C10.6589 1.59315 10.9814 1.78281 11.1521 2.0673L12.2331 3.94494C12.271 4.02081 12.2141 4.11564 12.1383 4.11564H8.72439C8.66749 4.11564 8.6106 4.0777 8.6106 4.02081L8.40197 1.70695ZM13.6556 10.0331C12.9349 10.0331 12.3469 9.4451 12.3469 8.72439C12.3469 8.00368 12.9349 7.41573 13.6556 7.41573C14.3763 7.41573 14.9642 8.00368 14.9642 8.72439C14.9642 9.4451 14.3763 10.0331 13.6556 10.0331Z" fill="#214353"/>
</svg>
