<svg width="14" height="13" viewBox="0 0 14 13" fill="none" xmlns="http://www.w3.org/2000/svg">
<path fill-rule="evenodd" clip-rule="evenodd" d="M2.31654 5.75151C2.43791 5.75151 2.55723 5.76082 2.67349 5.77876C2.43739 5.35272 2.30292 4.8632 2.30292 4.34236C2.30292 2.69591 3.64511 1.36124 5.30085 1.36124C6.45904 1.36124 7.46368 2.01461 7.96294 2.97063C8.03767 2.96369 8.11325 2.96013 8.18967 2.96013C9.55195 2.96013 10.6562 4.05817 10.6562 5.41281C10.6562 6.44973 10.009 7.33635 9.09457 7.69519C9.82771 8.13563 10.3179 8.93541 10.3179 9.84928C10.3179 11.2383 9.18564 12.3641 7.78897 12.3641C7.17379 12.3641 6.61002 12.1457 6.1717 11.7826C5.78905 12.014 5.33983 12.1474 4.85913 12.1474C3.71524 12.1474 2.7489 11.392 2.43637 10.3556C2.39671 10.3576 2.35671 10.3586 2.31654 10.3586C1.03716 10.3586 0 9.32726 0 8.05506C0 6.78285 1.03716 5.75151 2.31654 5.75151ZM6.42738 0.974637C6.97566 0.375772 7.76599 0 8.6445 0C9.80269 0 10.8075 0.653369 11.3066 1.60939C11.3813 1.60245 11.4569 1.59889 11.5335 1.59889C12.8956 1.59889 14 2.69692 14 4.05156C14 5.08849 13.3528 5.97511 12.4382 6.33395C13.1715 6.77438 13.6616 7.57417 13.6616 8.48804C13.6616 9.87687 12.5293 11.0028 11.1328 11.0028C10.9782 11.0028 10.8271 10.9891 10.6803 10.9627C10.815 10.6172 10.889 10.2418 10.889 9.84928C10.889 9.06998 10.5946 8.33468 10.083 7.7756C10.793 7.21245 11.2273 6.34902 11.2273 5.41281C11.2273 3.77617 9.91776 2.44319 8.28398 2.3936C7.83953 1.7211 7.18265 1.22447 6.42738 0.974637ZM3.86912 6.81281L3.27931 6.91708C3.24118 6.69161 3.10211 6.565 2.8701 6.565C2.4711 6.565 2.37918 6.90083 2.37918 7.23496C2.37918 7.57519 2.4551 7.96839 2.87725 7.96839C3.15522 7.96839 3.2628 7.7866 3.30978 7.53829L3.89959 7.63832C3.7738 8.19301 3.41685 8.45503 2.85035 8.45503C2.13321 8.45503 1.76315 7.95824 1.76315 7.27761C1.76315 6.58548 2.13474 6.0958 2.86125 6.0958C3.38331 6.0958 3.71933 6.30501 3.86912 6.81281ZM4.18437 7.24359C4.18437 6.5738 4.68363 6.0958 5.3509 6.0958C6.03978 6.0958 6.52185 6.58684 6.52185 7.26898C6.52185 7.94452 6.04285 8.45503 5.35532 8.45503C4.61707 8.45503 4.18437 7.9579 4.18437 7.24359ZM4.8004 7.27541C4.8004 7.62156 4.9616 7.96839 5.35464 7.96839C5.74956 7.96839 5.90582 7.61666 5.90582 7.27118C5.90582 6.92791 5.74394 6.58244 5.35464 6.58244C4.96143 6.58244 4.8004 6.92926 4.8004 7.27541ZM8.88928 7.84669V8.3985H6.78773C6.8102 8.18861 6.87863 7.99023 6.99234 7.80251C7.10588 7.61513 7.33091 7.36597 7.6659 7.05537C7.93605 6.80468 8.10133 6.63457 8.16261 6.54554C8.2884 6.35731 8.35887 6.05212 8.17844 5.87287C8.10712 5.8011 8.00805 5.76573 7.88208 5.76573C7.57467 5.76573 7.47441 5.97849 7.45619 6.25237L6.85752 6.19295C6.92374 5.58258 7.28103 5.27045 7.89672 5.27045C8.2055 5.27045 8.4479 5.35356 8.62493 5.51944C9.06461 5.93313 8.9029 6.52116 8.57318 6.93807C8.50118 7.03065 8.36926 7.16319 8.17997 7.33635C8.02235 7.47989 7.80549 7.66033 7.69654 7.84669H8.88928Z" fill="#214353"/>
</svg>
