<svg width="14" height="14" viewBox="0 0 14 14" fill="none" xmlns="http://www.w3.org/2000/svg">
<path fill-rule="evenodd" clip-rule="evenodd" d="M6.00408 8.7868L5.99948 8.79939L5.88504 8.74173C5.86477 8.7327 5.84513 8.72279 5.82615 8.71206L5.01823 8.30499C4.8536 8.22205 4.66247 8.20855 4.48777 8.26752L1.3753 9.31825V11.57H3.90271C4.12444 11.57 4.34472 11.6057 4.55507 11.6756L7.10201 12.5225C7.74421 12.736 8.45058 12.6217 8.99214 12.2165L12.5624 9.54546C12.5683 9.54105 12.5739 9.53623 12.5791 9.53103C12.6399 9.47034 12.6399 9.37195 12.5791 9.31127C12.3564 9.08916 12.0225 9.02079 11.7301 9.13745L10.3479 9.68896C10.167 9.76116 9.9816 9.81736 9.79383 9.85764C9.79953 10.0672 9.76654 10.2812 9.69032 10.4901C9.36559 11.3801 8.37908 11.839 7.4869 11.5151L5.22528 10.6939C4.8684 10.5644 4.6844 10.1707 4.81429 9.81476C4.94418 9.45877 5.33878 9.27522 5.69565 9.40479L7.95728 10.2259C8.13571 10.2907 8.33302 10.1989 8.39796 10.0209C8.46291 9.84293 8.3709 9.64612 8.19247 9.58133L6.00408 8.7868ZM6.44534 7.48708L8.66285 8.29218C8.84199 8.35723 9.00372 8.44888 9.14516 8.56105C9.38001 8.55263 9.61417 8.50417 9.83714 8.4152L11.2194 7.86368C12.0225 7.54321 12.9399 7.73104 13.5516 8.3412C14.1495 8.93764 14.1495 9.90466 13.5516 10.5011C13.5003 10.5522 13.4455 10.5996 13.3876 10.643L9.81731 13.314C8.91472 13.9893 7.73745 14.1799 6.6671 13.824L4.12016 12.9771C4.05005 12.9538 3.97662 12.9419 3.90271 12.9419H1.03147C0.461806 12.9419 0 12.4812 0 11.913V9.07224C0 8.6311 0.281916 8.23904 0.700818 8.09763L4.04689 6.96804C4.571 6.7911 5.14439 6.83161 5.63827 7.08044L6.44534 7.48708ZM7.51816 0.878207C7.85368 0.753879 8.21669 0.685943 8.5956 0.685943C10.3046 0.685943 11.69 2.06793 11.69 3.77269C11.69 5.47745 10.3046 6.85944 8.5956 6.85944C7.5039 6.85944 6.54424 6.2955 5.99341 5.44374C5.8337 5.47252 5.6692 5.48755 5.50119 5.48755C3.98208 5.48755 2.75059 4.25912 2.75059 2.74377C2.75059 1.22843 3.98208 0 5.50119 0C6.29808 0 7.01581 0.338039 7.51816 0.878207ZM6.34164 1.65778C6.10922 1.47854 5.81769 1.37189 5.50119 1.37189C4.74163 1.37189 4.12589 1.9861 4.12589 2.74377C4.12589 3.50145 4.74163 4.11566 5.50119 4.11566C5.50749 4.11566 5.51378 4.11562 5.52006 4.11553C5.50759 4.00297 5.50119 3.88857 5.50119 3.77269C5.50119 2.95426 5.8205 2.21022 6.34164 1.65778ZM8.5956 5.48755C9.54505 5.48755 10.3147 4.71978 10.3147 3.77269C10.3147 2.8256 9.54505 2.05783 8.5956 2.05783C7.64616 2.05783 6.87648 2.8256 6.87648 3.77269C6.87648 4.71978 7.64616 5.48755 8.5956 5.48755Z" fill="#214353"/>
</svg>
