<svg width="14" height="14" viewBox="0 0 14 14" fill="none" xmlns="http://www.w3.org/2000/svg">
<path d="M5.56326 3.63757C4.67782 3.46 4.10263 2.58876 4.28148 1.69366C4.46132 0.796855 5.32716 0.21641 6.21317 0.39384C7.10017 0.571695 7.67323 1.43952 7.49409 2.33689C7.3151 3.23157 6.45069 3.81471 5.56326 3.63757Z" fill="#214353"/>
<path d="M13.0671 11.8185H10.0135C10.0135 11.8185 12.7441 8.80845 12.756 8.7914C12.8573 8.686 12.9415 8.58556 13.0148 8.45927C13.3937 7.80751 13.3247 6.96114 12.7932 6.47644C12.788 6.46962 9.53373 3.23996 9.53373 3.23996C9.24024 2.93936 8.93155 2.76605 8.61789 2.73679C8.03574 2.68238 7.63911 3.14918 7.52078 3.33826L5.03123 7.51644H2.79298V6.91C2.79298 6.78953 2.69539 6.69194 2.57521 6.69194C2.45474 6.69194 2.35715 6.78953 2.35715 6.91V7.51644H2.00045C1.53095 7.51644 1.15052 7.89687 1.15052 8.36622C1.15052 8.83601 1.53109 9.21658 2.00045 9.21658H2.35715V11.9317C0.619937 12.0465 0 13.5026 0 13.5026H5.15028C5.15028 13.5026 4.39936 12.0562 2.79298 11.9333V9.21672H5.51423C5.81368 9.21672 6.09126 9.05918 6.24454 8.80134L7.74182 6.28864L9.67295 8.23468L7.71753 11.8426C7.62761 11.9981 7.36565 12.5186 7.56127 12.966C7.71469 13.3173 7.9934 13.5026 8.30494 13.5026H13.0668C13.5866 13.5026 14 13.1261 14 12.659C14.0003 12.1944 13.6132 11.8185 13.0671 11.8185Z" fill="#214353"/>
<path d="M0.518941 5.32267C0.455442 5.68094 0.72052 6.11833 1.18448 6.37162C1.64815 6.62477 2.15956 6.6117 2.42662 6.36466C2.49012 6.00639 2.22476 5.569 1.76109 5.31571C1.29727 5.06242 0.785866 5.07564 0.518941 5.32267Z" fill="#214353"/>
<path d="M1.21174 3.04962C0.962433 3.31442 0.944676 3.82554 1.19384 4.29163C1.44301 4.75743 1.87813 5.02677 2.23683 4.96625C2.48628 4.70146 2.50389 4.1902 2.25472 3.72411C2.00556 3.2583 1.57058 2.98925 1.21174 3.04962Z" fill="#214353"/>
<path d="M4.21271 4.13649C4.39 4.45413 4.28246 4.95431 3.92732 5.34554C3.57218 5.73648 3.08464 5.8916 2.75137 5.74557C2.57408 5.42807 2.68148 4.92775 3.03676 4.53666C3.3919 4.14558 3.87944 3.9906 4.21271 4.13649Z" fill="#214353"/>
</svg>
