<svg width="17" height="17" viewBox="0 0 17 17" fill="none" xmlns="http://www.w3.org/2000/svg">
<path d="M8.20988 0C12.7615 0 16.4198 3.65709 16.4198 8.20719C16.4198 9.95068 15.8668 11.6942 14.8458 13.0975L15.4414 16.712L11.3152 15.819C10.3368 16.2018 9.27333 16.4144 8.20988 16.4144C3.65829 16.4144 0 12.7573 0 8.20719C0 3.69961 3.70083 0 8.20988 0ZM8.20988 1.06311C4.25382 1.06311 1.06346 4.25243 1.06346 8.20719C1.06346 12.1619 4.29636 15.3513 8.20988 15.3513C9.31587 15.3513 10.2092 15.1386 11.2301 14.7134L14.1227 15.3513L13.6973 12.7998C14.7608 11.439 15.3563 9.99321 15.3563 8.20719C15.3563 4.29495 12.1659 1.06311 8.20988 1.06311Z" fill="#214353"/>
<path d="M5.65762 6.54872C5.65762 5.1029 6.76362 3.91222 8.20992 3.91222C9.65622 3.91222 10.7622 5.1029 10.7622 6.54872C10.7622 7.61183 10.2092 8.46232 9.27337 8.93009C8.93307 9.10018 8.76291 9.39785 8.76291 9.78057V9.99319H7.65692V9.78057C7.65692 9.01513 8.0823 8.33474 8.80545 7.95203C9.35845 7.65436 9.69876 7.18659 9.69876 6.54872C9.69876 5.69824 9.06068 4.97533 8.20992 4.97533C7.35915 4.97533 6.72108 5.69824 6.72108 6.54872H5.65762Z" fill="#214353"/>
<path d="M8.20985 11.9918C8.60924 11.9918 8.933 11.6682 8.933 11.2689C8.933 10.8697 8.60924 10.546 8.20985 10.546C7.81047 10.546 7.4867 10.8697 7.4867 11.2689C7.4867 11.6682 7.81047 11.9918 8.20985 11.9918Z" fill="#214353"/>
</svg>
