<svg stroke = "currentColor" width="41" height="41" viewBox="0 0 41 41" fill="currentColor" xmlns="http://www.w3.org/2000/svg">
<path d="M28.1875 9.39583C29.0936 9.39583 29.9627 9.03586 30.6034 8.39511C31.2442 7.75437 31.6041 6.88532 31.6041 5.97917C31.6041 5.07301 31.2442 4.20397 30.6034 3.56322C29.9627 2.92247 29.0936 2.5625 28.1875 2.5625C27.2813 2.5625 26.4123 2.92247 25.7715 3.56322C25.1308 4.20397 24.7708 5.07301 24.7708 5.97917C24.7708 6.88532 25.1308 7.75437 25.7715 8.39511C26.4123 9.03586 27.2813 9.39583 28.1875 9.39583ZM22.0375 33.1417L23.7458 25.625L27.3333 29.0417V39.2917H30.75V26.4792L27.1625 23.0625L28.1875 17.9375C29.3579 19.2789 30.802 20.3542 32.4227 21.0908C34.0434 21.8275 35.803 22.2086 37.5833 22.2083V18.7917C34.5766 18.8429 31.775 17.2712 30.2375 14.6917L28.5291 11.9583C27.9141 10.9333 26.8208 10.25 25.625 10.25C25.1125 10.25 24.7708 10.4208 24.2583 10.4208L15.375 14.1792V22.2083H18.7916V16.4L21.8666 15.2042L19.1333 29.0417L10.7625 27.3333L10.0791 30.75L22.0375 33.1417ZM6.83329 15.375C6.38021 15.375 5.94569 15.195 5.62532 14.8746C5.30494 14.5543 5.12496 14.1197 5.12496 13.6667C5.12496 13.2136 5.30494 12.7791 5.62532 12.4587C5.94569 12.1383 6.38021 11.9583 6.83329 11.9583H11.9583V15.375H6.83329ZM8.54163 8.54167C8.08855 8.54167 7.65403 8.36168 7.33365 8.04131C7.01328 7.72093 6.83329 7.28641 6.83329 6.83333C6.83329 6.38025 7.01328 5.94573 7.33365 5.62536C7.65403 5.30498 8.08855 5.125 8.54163 5.125H17.0833V8.54167H8.54163ZM5.12496 22.2083C4.67188 22.2083 4.23736 22.0283 3.91699 21.708C3.59661 21.3876 3.41663 20.9531 3.41663 20.5C3.41663 20.0469 3.59661 19.6124 3.91699 19.292C4.23736 18.9717 4.67188 18.7917 5.12496 18.7917H11.9583V22.2083H5.12496Z" fill="#FFFFFF"/>
</svg>
