<svg width="13" height="8" viewBox="0 0 13 8" fill="none" xmlns="http://www.w3.org/2000/svg">
<path d="M1.21792 1.08961C1.21792 1.01018 1.15173 0.930748 1.05906 0.930748H0.158853C0.0794233 0.930748 0 0.996941 0 1.08961V7.84115C0 7.92058 0.066185 8 0.158853 8H1.05906C1.13849 8 1.21792 7.93382 1.21792 7.84115V6.51732H11.7821V7.84115C11.7821 7.92058 11.8483 8 11.9409 8H12.8411C12.9206 8 13 7.93382 13 7.84115V5.31263H1.23116V1.08961H1.21792Z" fill="white"/>
<path d="M3.12429 4.80959C3.89198 4.80959 4.51431 4.18726 4.51431 3.41957C4.51431 2.65188 3.89198 2.02955 3.12429 2.02955C2.3566 2.02955 1.73427 2.65188 1.73427 3.41957C1.73427 4.18726 2.3566 4.80959 3.12429 4.80959Z" fill="white"/>
<path d="M10.061 1.8707H5.17603C5.0966 1.8707 5.01717 1.9369 5.01717 2.02956V4.80961H12.9866C12.9866 3.1813 11.676 1.8707 10.061 1.8707Z" fill="white"/>
</svg>
