<svg width="13" height="13" viewBox="0 0 13 13" fill="none" xmlns="http://www.w3.org/2000/svg">
<path fill-rule="evenodd" clip-rule="evenodd" d="M6.09695 0C2.72963 0 -2.67029e-05 2.74366 -2.67029e-05 6.12824C-2.67029e-05 9.51283 2.72963 12.2565 6.09695 12.2565C9.46427 12.2565 12.1939 9.51283 12.1939 6.12824C12.1939 2.74366 9.46427 0 6.09695 0ZM8.38973 3.46322C8.62613 3.06584 8.02424 2.70411 7.78784 3.10133L6.09555 5.92955L2.94084 7.4273C2.5234 7.62521 2.82295 8.26333 3.24038 8.06526L6.58655 6.47669L8.38973 3.46322ZM1.37888 5.82419V6.43229H2.54689V5.82419H1.37888ZM5.79445 10.8705H6.39945V9.69651H5.79445V10.8705ZM10.815 6.43229V5.82419H9.64701V6.43229H10.815ZM6.39945 1.38598H5.79445V2.55997H6.39945V1.38598ZM6.09695 1.04065C3.3015 1.04065 1.03532 3.31846 1.03532 6.12824C1.03532 8.93802 3.3015 11.2158 6.09695 11.2158C8.89239 11.2158 11.1586 8.93802 11.1586 6.12824C11.1586 3.31846 8.89239 1.04065 6.09695 1.04065Z" fill="white"/>
</svg>
