<svg width="65" height="63"  fill="none" xmlns="http://www.w3.org/2000/svg">
<ellipse cx="10" cy="40" rx="8" ry="7" fill="white"/>
<ellipse cx="18.3272" cy="33.9818" rx="10.4727" ry="9.81818" fill="white"/>
<ellipse cx="33.3818" cy="28.7455" rx="9.81818" ry="7.2" fill="white"/>
<ellipse cx="44.5091" cy="27.4364" rx="6.54545" ry="7.2" fill="white"/>
<ellipse cx="65.4545" cy="53.6182" rx="6.54545" ry="7.2" fill="white"/>
<ellipse cx="62.8363" cy="60.1636" rx="6.54545" ry="7.2" fill="white"/>
<ellipse cx="54.3273" cy="33.3273" rx="8.50909" ry="9.16364" fill="white"/>
<ellipse cx="61.5272" cy="44.4546" rx="7.85455" ry="12.4364" fill="white"/>
<ellipse cx="32.7273" cy="55.5818" rx="32.7273" ry="24.8727" fill="white"/>
<path d="M56.6783 66.7091C56.6783 83.6994 47.5937 87 36.3874 87C25.181 87 16.0965 83.6994 16.0965 66.7091C16.0965 49.7188 25.181 35.9454 36.3874 35.9454C47.5937 35.9454 56.6783 49.7188 56.6783 66.7091Z" fill="#1B1A1A"/>
<path d="M17.9669 48.5602C13.8848 52.3262 19.5151 60.0315 10.4345 54.7466C7.55658 51.6272 8.50257 46.0989 12.5847 42.3328C16.6667 38.5667 22.2109 39.5042 25.0888 42.6236C27.9667 45.743 22.049 44.7941 17.9669 48.5602Z" fill="#1B1A1A"/>
<path d="M54.7753 48.0402C59.2754 51.2973 54.5968 59.615 62.9886 53.2927C65.4771 49.8545 63.8828 44.4765 59.3827 41.2194C54.8827 37.9623 49.4878 39.549 46.9993 42.9872C44.5108 46.4254 50.2753 44.7831 54.7753 48.0402Z" fill="#1B1A1A"/>
<circle cx="32" cy="52" r="3.5" stroke="#636060"/>
<circle cx="42" cy="52" r="3.5" stroke="#636060"/>
<rect x="25" y="52" width="21" height="7" fill="#1B1A1A"/>
<path d="M47.6953 18H41.0215V16.5703L44.7305 11.3027H41.1094V9.43359H47.6016V10.8574L43.8926 16.1309H47.6953V18Z" fill="#FFD953" fill-opacity="0.75"/>
<path d="M55.7461 12H50.1846V10.8086L53.2754 6.41895H50.2578V4.86133H55.668V6.04785L52.5771 10.4424H55.7461V12Z" fill="#FFD953" fill-opacity="0.75"/>
<path d="M62.7715 9H57.7661V7.92773L60.5479 3.97705H57.832V2.5752H62.7012V3.64307L59.9194 7.59814H62.7715V9Z" fill="#FFD953" fill-opacity="0.75"/>
</svg>
